<?xml version="1.0" encoding="utf-8"?>
<!-- Generator: Adobe Illustrator 23.0.3, SVG Export Plug-In . SVG Version: 6.00 Build 0)  -->
<svg version="1.1" id="Layer_1" xmlns="http://www.w3.org/2000/svg" xmlns:xlink="http://www.w3.org/1999/xlink" x="0px" y="0px"
	 viewBox="0 0 180.2 180.2" style="enable-background:new 0 0 180.2 180.2;" xml:space="preserve">
<style type="text/css">
	.st0{fill-rule:evenodd;clip-rule:evenodd;fill:#E3B378;}
</style>
<title>logo_symbol</title>
<path class="st0" d="M124.3,163.9c-31,14.3-67.6,7.8-91.7-16.3C0.8,115.9,0.8,64.4,32.6,32.6l0.6-0.6c0.3-0.3,0.8-0.5,1.3-0.4
	c0.5,0.1,0.9,0.3,1.1,0.8l51,88.4c0.5,0.9,0.8,2,0.8,3c0,3.4-2.7,6.1-6.1,6.1c-2.2,0-4.2-1.1-5.3-3l-12.2-21.1
	c-0.5-0.9-1.3-1.7-2.2-2.2c-2.9-1.7-6.6-0.7-8.3,2.2l-10.2,17.6c-0.5,0.9-0.8,2-0.8,3c0,3.4,2.7,6.1,6.1,6.1h48.6
	c1.1,0,2.1-0.3,3.1-0.8c2.9-1.7,3.9-5.4,2.2-8.3L46.4,26.6c-0.2-0.3-0.4-0.6-0.6-0.8c-2.1-2.6-5.9-3-8.5-0.8
	C7.5,49.1-2,90.3,14,125.1c19.4,42.1,69.3,60.6,111.4,41.2c0.6-0.3,0.9-1,0.6-1.7C125.8,164,125,163.7,124.3,163.9z"/>
<path class="st0" d="M90.1,6.1c-12.2,0-24.3,2.6-35.3,7.8c-0.6,0.3-0.9,1-0.6,1.7c0.3,0.7,1,1,1.7,0.7c31-14.5,67.8-7.9,92,16.3
	c31.7,31.8,31.6,83.3-0.2,115.1c-0.2,0.2-0.4,0.4-0.6,0.6c-0.3,0.3-0.8,0.5-1.3,0.4c-0.5-0.1-0.9-0.3-1.1-0.8l-51-88.4
	c-0.5-0.9-0.8-2-0.8-3c0-3.4,2.7-6.1,6.1-6.1c0.3,0,0.6,0,0.8,0c-0.3-0.9-0.8-1.9-0.9-2.7h-0.1H83.3c-1.1,0-2.1,0.3-3,0.8
	c-2.9,1.7-3.9,5.4-2.2,8.3l49.5,85.8l6.3,10.9c0.2,0.3,0.4,0.6,0.6,0.8c2.1,2.6,5.9,3,8.5,0.8c2.3-1.8,4.4-3.8,6.5-5.9
	c15.7-15.7,24.5-37,24.5-59.3C174.1,43.8,136.5,6.2,90.1,6.1z"/>
<path class="st0" d="M104.2,53.4l12.2,21.1c0.5,0.9,1.3,1.7,2.2,2.2c2.9,1.7,6.6,0.7,8.3-2.2l10.2-17.6c0.5-0.9,0.8-2,0.8-3
	c0-3.4-2.7-6.1-6.1-6.1h-28.6C103.5,48.6,103.3,51.8,104.2,53.4z"/>
<path class="st0" d="M139.3,53.4l-12.2,21.1c-0.5,0.9-1.3,1.7-2.2,2.2c-2.9,1.7-6.6,0.7-8.3-2.2l-10.2-17.6c-0.5-0.9-0.8-2-0.8-3
	c0-3.4,2.7-6.1,6.1-6.1h28.6C140,48.6,140.2,51.8,139.3,53.4z"/>
</svg>
